# xmcd CD database file
#
# Track frame offsets:
#	150
#	8010
#	16084
#	26188
#	37773
#	47801
#	58164
#	68946
#	80017
#	91668
#
# Disc length: 1429 seconds
#
# Revision: 0
# Processed by: cddbd v1.5.1PL0 Copyright (c) Steve Scherf et al.
# Submitted via: CDex 1.51
#
DISCID=7205930a
DTITLE=Various Artist - Jazz Vocals For Dinner Time
DYEAR=2005
DGENRE=Jazz
TTITLE0=My Heart Stood Still
TTITLE1=Love Me Or Leave Me
TTITLE2=With A Song Im My Heart
TTITLE3=Rose Rose I Love You
TTITLE4=You Are My Sunshine
TTITLE5=Ole Buttermilk Sky
TTITLE6=Shanghai
TTITLE7=Tenessee Waltz
TTITLE8=Sweet Georgia Brown
TTITLE9=Mona Lisa
EXTD=YEAR: 2005
EXTT0=
EXTT1=
EXTT2=
EXTT3=
EXTT4=
EXTT5=
EXTT6=
EXTT7=
EXTT8=
EXTT9=
PLAYORDER=
